<svg width="84" height="84" viewBox="0 0 84 84" fill="none" xmlns="http://www.w3.org/2000/svg">
<g clip-path="url(#clip0_46_574)">
<path d="M28.105 28.343L28.595 28.301C28.7805 28.28 28.9485 28.2135 29.0885 28.1155L29.085 28.119C29.554 29.736 30.128 31.437 30.8455 33.2185C31.766 35.5495 32.6725 37.464 33.6875 39.312L33.5475 39.032C33.4635 40.306 33.362 41.615 33.229 42.882C33.166 43.6625 33.012 44.3905 32.7775 45.0765L32.795 45.0135C32.753 45.031 32.6935 52.2935 32.6935 52.2935C32.697 57.029 35.9765 60.9945 40.3865 62.048L40.4565 62.062C40.656 61.5545 41.139 61.201 41.706 61.201H43.715C44.2785 61.208 44.7615 61.558 44.961 62.0515L44.9645 62.062C49.455 61.005 52.7485 57.0395 52.766 52.3005C52.766 52.3005 52.6435 45.066 52.5805 45.017C52.388 44.4045 52.234 43.6835 52.1535 42.9415L52.15 42.889C52.0275 41.615 51.947 40.3375 51.8315 39.039C52.696 37.478 53.6025 35.567 54.4005 33.5965L54.5335 33.2255C55.251 31.444 55.8075 29.7465 56.294 28.126C56.4305 28.224 56.5985 28.2905 56.7805 28.3115H56.784L57.2775 28.3535C57.8725 28.4165 58.3975 27.9265 58.4465 27.167L58.9785 20.4085C58.9785 20.405 58.9785 20.4015 58.9785 20.4015C58.9785 19.831 58.5515 19.362 58.002 19.292H57.995H57.9355C58.072 18.3085 58.149 17.1745 58.149 16.023C58.149 13.51 57.778 11.081 57.0885 8.7955L57.134 8.974C55.1145 4.543 51.1105 1.3265 46.2875 0.426996L46.1965 0.412996C45.1605 0.199496 43.953 0.0559961 42.721 0.0209961H42.6895H42.6475C41.391 0.0454961 40.1835 0.185496 39.0145 0.433996L39.1405 0.412996C34.2335 1.337 30.2365 4.5535 28.2415 8.8795L28.203 8.974C27.552 11.074 27.1775 13.489 27.1775 15.988C27.1775 17.1535 27.258 18.3015 27.4155 19.4215L27.4015 19.292C26.845 19.355 26.4145 19.8205 26.4145 20.3875V20.412L26.9465 27.1705C26.9955 27.9475 27.5275 28.4165 28.1015 28.3535L28.105 28.343Z" fill="#fff"/>
<path d="M80.206 73.0731C79.961 62.4331 78.897 60.0251 78.323 58.3941C78.0955 57.7396 77.91 53.3156 70.602 50.4456C66.122 48.6816 60.34 48.6466 55.447 46.5781V52.3321C55.4365 58.5201 51.0055 63.6685 45.143 64.792L45.0625 64.8061C44.954 65.4431 44.408 65.9191 43.7535 65.9261H43.6905V70.2661C43.6905 74.5081 47.1275 77.9451 51.3695 77.9451C55.6115 77.9451 59.0485 74.5081 59.0485 70.2661V67.235C56.9205 66.9165 55.307 65.1036 55.307 62.9126C55.307 60.5011 57.2635 58.5445 59.675 58.5445C62.0865 58.5445 64.043 60.5011 64.043 62.9126C64.043 64.8236 62.8145 66.4476 61.1065 67.0426L61.075 67.0531V70.2661V70.4305C61.075 75.7925 56.728 80.1395 51.366 80.1395C46.004 80.1395 41.657 75.7925 41.657 70.4305C41.657 70.371 41.657 70.3151 41.657 70.2556V70.2626V65.8841C41.034 65.8421 40.53 65.3731 40.432 64.7711V64.7641C34.517 63.6126 30.107 58.4816 30.093 52.3181V46.5186C25.179 48.6291 19.362 48.6711 14.8575 50.4386C7.52851 53.3051 7.36051 57.7186 7.13651 58.3836C6.57651 60.0216 5.49851 62.4191 5.25351 73.066C5.21151 74.466 5.25351 76.6115 9.47451 78.4875C18.6655 82.0925 30.506 83.2125 42.1785 84.0175H43.2985C54.9955 83.2195 66.8185 82.103 76.0025 78.4875C80.206 76.622 80.2445 74.4871 80.206 73.0731ZM28.8225 68.7331H24.4615V73.1116H21.3465V68.7471H16.9855V65.6321H21.3465V61.2711H24.4615V65.6321H28.8225V68.7331Z" fill="#fff"/>
<path d="M62.0375 62.8776C62.0375 61.5756 60.984 60.5186 59.682 60.5186C58.38 60.5186 57.3265 61.5721 57.3265 62.8741C57.3265 64.1761 58.38 65.2296 59.682 65.2296C60.9805 65.2296 62.034 64.1761 62.0375 62.8776Z" fill="#fff"/>
</g>
<defs>
<clipPath id="clip0_46_574">
<rect width="84" height="84" fill="white"/>
</clipPath>
</defs>
</svg>
