<svg width="76" height="76" viewBox="0 0 76 76" fill="none" xmlns="http://www.w3.org/2000/svg">
<path d="M37.596 41.1579C40.5459 41.1579 42.9461 38.758 42.9461 35.8081C42.9461 32.8582 40.5459 30.4584 37.596 30.4584C34.646 30.4584 32.2464 32.8582 32.2464 35.8081C32.2464 38.758 34.646 41.1579 37.596 41.1579ZM37.596 33.0572C39.1132 33.0572 40.3473 34.2911 40.3473 35.8081C40.3473 37.3251 39.1132 38.5593 37.596 38.5593C36.079 38.5593 34.845 37.3251 34.845 35.8081C34.845 34.2911 36.079 33.0572 37.596 33.0572Z" fill="white"/>
<path d="M58.8378 35.8599C63.36 32.0266 66.8636 28.1209 68.4666 24.6753C68.0635 24.757 67.6462 24.8003 67.2192 24.8003C66.6519 24.8003 66.1024 24.7233 65.5789 24.5814C64.7025 26.1068 63.3772 27.8327 61.6431 29.6701C60.235 31.1619 58.6101 32.6784 56.8063 34.1927C54.5656 32.4161 52.1041 30.6563 49.4763 28.9555C49.2917 26.0864 48.9931 23.259 48.5828 20.5629C53.3355 18.9148 57.6248 17.9748 60.9721 17.9059C61.0643 16.9637 61.3657 16.0827 61.829 15.3086C61.6757 15.3051 61.5238 15.3004 61.366 15.3004C57.8063 15.3004 53.2189 16.2551 48.1469 17.9777C46.2715 7.87183 42.728 0.187256 37.6818 0.187256C32.6353 0.187256 29.0916 7.87179 27.2167 17.9777C22.1444 16.2551 17.5571 15.3004 13.9974 15.3004C13.9815 15.3004 13.9668 15.3012 13.9509 15.3012C14.4187 16.0805 14.7221 16.9689 14.8133 17.9184C18.0956 18.0538 22.2254 18.9833 26.7804 20.5629C26.3701 23.259 26.0714 26.0865 25.8867 28.9558C23.2591 30.6566 20.7978 32.4161 18.5571 34.1926C16.7533 32.6786 15.1283 31.1618 13.7203 29.6701C12.02 27.8688 10.7123 26.1741 9.83575 24.6707C9.42505 24.7555 9.00004 24.8002 8.56469 24.8002C7.96742 24.8002 7.39003 24.7144 6.84249 24.558C8.4197 28.0321 11.9518 31.9833 16.5256 35.8599C14.7857 37.3393 13.2092 38.8215 11.8302 40.2828C6.66431 45.7562 4.84837 50.2756 6.57809 53.3527C7.72827 55.3986 10.2242 56.436 13.9968 56.436C17.5567 56.436 22.1439 55.4815 27.2164 53.7585C28.2527 59.3439 29.799 64.188 31.8269 67.4054C32.2082 66.5196 32.7882 65.7393 33.5096 65.1187C32.7346 63.6916 31.9995 61.8991 31.3431 59.7931C30.6898 57.6984 30.134 55.3728 29.6811 52.8743C32.2718 51.8982 34.9603 50.7403 37.6818 49.4221C40.4031 50.7403 43.0914 51.8982 45.6821 52.8741C45.2291 55.3726 44.6733 57.6984 44.0202 59.7931C43.3485 61.9482 42.5942 63.7768 41.7989 65.22C42.5102 65.8621 43.0732 66.6652 43.4325 67.5705C45.5117 64.3549 47.0926 59.4394 48.147 53.7584C53.2191 55.4815 57.8067 56.436 61.3668 56.436C65.1388 56.436 67.6352 55.3984 68.7851 53.3525C70.5151 50.2756 68.6991 45.7562 63.5332 40.2828C62.154 38.8215 60.5775 37.3393 58.8378 35.8599ZM54.7355 35.868C53.1415 37.1133 51.4344 38.3495 49.635 39.5621C49.6772 38.3297 49.6991 37.0965 49.6991 35.8684C49.6991 34.6399 49.6772 33.4063 49.635 32.174C51.4345 33.3864 53.1415 34.6228 54.7355 35.868ZM28.2625 35.8684C28.2625 34.0301 28.3086 32.2156 28.3971 30.4363C29.9044 29.4875 31.464 28.5584 33.0661 27.6577C34.6063 26.7918 36.1487 25.9751 37.6819 25.2081C39.2149 25.9751 40.7572 26.7918 42.2972 27.6577C43.8997 28.5583 45.4589 29.4875 46.9663 30.4361C47.0549 32.2153 47.1006 34.03 47.1006 35.8685C47.1006 37.7063 47.0549 39.5208 46.9663 41.2998C45.4587 42.2487 43.8993 43.1779 42.2969 44.0788C40.7569 44.9443 39.2146 45.7613 37.6819 46.528C36.1489 45.7613 34.6063 44.9443 33.0665 44.0786C31.464 43.1777 29.9046 42.2484 28.3971 41.2996C28.3086 39.5208 28.2625 37.7063 28.2625 35.8684ZM46.7588 27.2542C45.716 26.6223 44.6528 26.0007 43.5704 25.3923C42.5885 24.8404 41.6046 24.3079 40.622 23.7941C42.4859 22.9343 44.3221 22.1565 46.1084 21.4689C46.3798 23.3254 46.5972 25.2608 46.7588 27.2542ZM31.3431 11.9434C33.1309 6.20929 35.5001 2.78587 37.6818 2.78587C39.8631 2.78587 42.2326 6.20929 44.0202 11.9434C44.6733 14.0383 45.2291 16.3639 45.682 18.8621C43.0915 19.8379 40.403 20.9958 37.6818 22.3142C34.9603 20.9958 32.272 19.8379 29.6811 18.8621C30.1343 16.3638 30.6898 14.0383 31.3431 11.9434ZM29.2546 21.4687C31.041 22.1563 32.8774 22.9343 34.7413 23.7941C33.7586 24.308 32.775 24.8404 31.793 25.3924C30.7106 26.0007 29.647 26.6223 28.6043 27.2542C28.766 25.2608 28.9834 23.3254 29.2546 21.4687ZM25.7284 32.1742C25.686 33.4065 25.6639 34.6399 25.6639 35.8684C25.6639 37.0965 25.686 38.3298 25.7282 39.5619C23.9288 38.3495 22.2221 37.1131 20.628 35.8682C22.2221 34.623 23.9288 33.3866 25.7284 32.1742ZM13.9968 53.8374C11.3107 53.8374 9.48053 53.2128 8.8431 52.0793C7.77437 50.1778 9.59736 46.4347 13.7201 42.0664C15.131 40.571 16.7603 39.051 18.569 37.5333C20.8403 39.3314 23.3106 41.0951 25.8861 42.7687C26.0707 45.6418 26.3694 48.4734 26.7804 51.1736C21.8402 52.8865 17.3978 53.8374 13.9968 53.8374ZM29.2546 50.2673C28.9833 48.4095 28.7657 46.4727 28.6039 44.4776C29.6576 45.1182 30.7222 45.7418 31.7932 46.3437C32.7749 46.8956 33.7587 47.4281 34.7416 47.9419C32.8776 48.8018 31.041 49.58 29.2546 50.2673ZM40.622 47.9419C41.6047 47.4281 42.5885 46.8957 43.5701 46.344C44.6408 45.742 45.7056 45.1184 46.7593 44.4778C46.5976 46.4727 46.3802 48.4095 46.1084 50.2671C44.3221 49.58 42.4859 48.8018 40.622 47.9419ZM66.5202 52.0793C65.8828 53.2128 64.0526 53.8374 61.3668 53.8374C57.9655 53.8374 53.5233 52.8865 48.5829 51.1735C48.9937 48.4734 49.2928 45.6419 49.4772 42.7687C52.0528 41.0952 54.5232 39.3316 56.7948 37.5333C58.603 39.051 60.2324 40.5709 61.6436 42.0663C65.7659 46.4347 67.5891 50.1778 66.5202 52.0793Z" fill="white"/>
<path d="M13.6667 18.1451C13.6667 15.1833 11.2571 12.7739 8.2954 12.7739C5.33385 12.7739 2.92444 15.1833 2.92444 18.1451C2.92444 21.1066 5.33385 23.5162 8.2954 23.5162C11.2571 23.5162 13.6667 21.1066 13.6667 18.1451ZM5.56561 18.1451C5.56561 16.6399 6.79018 15.4151 8.2954 15.4151C9.80075 15.4151 11.0255 16.6399 11.0255 18.1451C11.0255 19.6502 9.80075 20.875 8.2954 20.875C6.79018 20.875 5.56561 19.6502 5.56561 18.1451Z" fill="white"/>
<path d="M67.7044 12.7739C64.7427 12.7739 62.3333 15.1833 62.3333 18.1451C62.3333 21.1066 64.7427 23.5162 67.7044 23.5162C70.6662 23.5162 73.0756 21.1066 73.0756 18.1451C73.0756 15.1833 70.6662 12.7739 67.7044 12.7739ZM67.7044 20.875C66.1991 20.875 64.9745 19.6502 64.9745 18.1451C64.9745 16.6399 66.1991 15.4151 67.7044 15.4151C69.2098 15.4151 70.4344 16.6399 70.4344 18.1451C70.4344 19.6502 69.2098 20.875 67.7044 20.875Z" fill="white"/>
<path d="M37.7037 65.0706C34.7422 65.0706 32.3328 67.4799 32.3328 70.4417C32.3328 73.4034 34.7422 75.8128 37.7037 75.8128C40.6656 75.8128 43.0753 73.4034 43.0753 70.4417C43.0753 67.4799 40.6657 65.0706 37.7037 65.0706ZM37.7037 73.1716C36.1986 73.1716 34.974 71.9471 34.974 70.4417C34.974 68.9364 36.1986 67.7118 37.7037 67.7118C39.2093 67.7118 40.4341 68.9364 40.4341 70.4417C40.4341 71.9471 39.2093 73.1716 37.7037 73.1716Z" fill="white"/>
</svg>
