<svg width="74" height="74" viewBox="0 0 74 74" fill="none" xmlns="http://www.w3.org/2000/svg">
<g clip-path="url(#clip0_40_9)">
<path d="M39.2301 34.583C30.9793 36.387 26.8557 32.5448 26.6413 32.3395C25.5994 31.2999 23.9133 31.2907 22.8615 32.3235C21.8021 33.3624 21.7861 35.0644 22.825 36.1231C23.0311 36.333 27.1645 40.436 35.0077 40.436C36.6383 40.436 38.4293 40.2603 40.3785 39.8329C41.8281 39.5157 42.7453 38.0822 42.4281 36.6341C42.1118 35.1838 40.6789 34.2674 39.2301 34.583Z" fill="white"/>
<path d="M14.8624 33.6256C18.2007 33.6256 20.907 30.9193 20.907 27.581C20.907 24.2426 18.2007 21.5364 14.8624 21.5364C11.524 21.5364 8.81775 24.2426 8.81775 27.581C8.81775 30.9193 11.524 33.6256 14.8624 33.6256Z" fill="white"/>
<path d="M70.7529 52.3328L59.4326 47.7606C59.0402 47.6031 58.6219 47.5218 58.1998 47.5218H55.3152V46.8951C55.3152 46.5742 55.2323 46.276 55.0939 46.0091L65.7654 48.9211C66.0476 48.9979 66.3313 49.0352 66.6104 49.0352C68.0173 49.0352 69.3064 48.0998 69.6951 46.6761C70.1605 44.971 69.1558 43.2104 67.4508 42.7465L53.3933 38.9089C53.1142 38.8328 52.8397 38.8328 52.5339 38.8344L42.9506 38.8435C42.5042 39.8983 41.5726 40.7296 40.3717 40.9927C38.7906 41.3387 37.1814 41.5144 35.5865 41.5144C27.8072 41.5144 22.5071 37.3551 22.2858 37.1779C21.5238 36.5703 21.0431 35.7018 20.9344 34.7329C20.8241 33.7632 21.0987 32.8088 21.7078 32.0452C22.4045 31.1706 23.4464 30.6694 24.5651 30.6694C25.3819 30.6694 26.1858 30.9485 26.8284 31.4558C26.9364 31.5395 29.0164 33.1282 32.3239 33.8522L26.4215 30.0466C24.3408 28.7035 21.7672 29.6306 20.2568 31.0596C20.2568 31.0596 19.7518 31.4908 19.3974 32.068C19.0582 32.6202 18.7935 33.3084 18.7935 33.3084L18.7852 33.3252C18.1015 35.304 18.3212 38.0214 20.4096 39.369L31.6227 46.6C31.7558 46.686 31.8919 46.7635 32.0273 46.832C32.0273 46.8525 32.0212 46.8738 32.0212 46.8943V47.521H28.8324L13.9156 37.1703C13.9893 37.0897 14.0601 37.003 14.1209 36.9064C14.6685 36.0318 14.4031 34.8781 13.5277 34.329L8.44971 31.1486C7.59717 30.6139 6.48453 30.8565 5.91947 31.6794C4.48361 30.9774 2.71464 31.3965 1.7754 32.7494C0.738812 34.2431 1.10918 36.295 2.6036 37.3316L25.9249 53.5192C26.4755 53.9025 27.1311 54.1063 27.8019 54.1063H32.1498C32.4266 54.8524 33.14 55.3871 33.9803 55.3871H38.1168V70.8423H36.1022C35.2306 70.8423 34.5249 71.5496 34.5249 72.4212C34.5249 73.2927 35.2314 73.9992 36.1022 73.9992H51.489C52.3605 73.9992 53.0671 73.2927 53.0671 72.4212C53.0671 71.5496 52.3598 70.8423 51.489 70.8423H49.2204V55.3871H53.3561C54.1972 55.3871 54.9098 54.8532 55.1874 54.1063H57.5595L68.2866 58.439C68.6897 58.6025 69.1072 58.6793 69.5171 58.6793C70.8221 58.6793 72.0542 57.9006 72.5721 56.6191C73.2535 54.9323 72.4398 53.0142 70.7529 52.3328Z" fill="white"/>
<path d="M28.2027 28.7826C34.1887 28.7826 37.5061 27.1817 39.669 25.2865V29.4358C39.4759 30.2694 39.1215 31.8178 38.7032 33.675C38.8636 33.643 39.0218 33.6172 39.1823 33.5822C39.4424 33.5252 39.7055 33.497 39.9679 33.497C41.676 33.497 43.1826 34.7093 43.5484 36.3801C43.6549 36.8692 43.658 37.3559 43.5728 37.8198L52.6906 37.7742C53.0914 37.7742 53.4428 37.8213 53.8124 37.9202L55.1479 38.2852C54.3889 34.5785 53.5257 30.9295 53.1698 29.4533V24.5214C54.1486 26.5603 54.76 29.4815 54.6976 33.9594C54.6779 35.3725 55.808 36.5353 57.221 36.5551C57.2347 36.5551 57.2454 36.5551 57.2583 36.5551C58.6554 36.5551 59.7984 35.4325 59.8159 34.0309C59.9871 21.8596 53.8892 16.1496 48.0279 13.9806C48.0218 13.9791 48.0157 13.9791 48.0119 13.9775L46.4171 15.6499L44.7752 13.9958C43.861 14.2201 42.9666 14.6293 42.1864 15.186C42.1643 15.1982 39.9147 16.8462 38.3396 19.0434C36.5068 21.5219 34.9242 23.6612 28.2004 23.6612C26.7874 23.6612 25.6405 24.8081 25.6405 26.2219C25.642 27.6365 26.7889 28.7826 28.2027 28.7826Z" fill="white"/>
<path d="M46.5168 13.4779C49.9292 13.4779 52.6983 10.7111 52.6983 7.29718C52.6983 5.86968 52.2032 4.56539 51.3864 3.5212H49.3877V2.58348H50.4859C50.1011 2.26026 49.6828 1.97583 49.228 1.753C48.7595 0.721732 47.723 0 46.5183 0C45.3151 0 44.2816 0.720211 43.8093 1.75071C43.3523 1.97355 42.9332 2.2595 42.5476 2.58348H43.8025V3.5212H41.6464C40.8342 4.56539 40.3368 5.86968 40.3368 7.29718C40.3383 10.7111 43.1036 13.4779 46.5168 13.4779ZM46.5183 1.30353C47.4454 1.30353 48.1975 2.05644 48.1975 2.98275C48.1975 3.90907 47.4446 4.66198 46.5183 4.66198C45.5927 4.66198 44.8406 3.90907 44.8406 2.98275C44.8406 2.05644 45.5927 1.30353 46.5183 1.30353Z" fill="white"/>
</g>
<defs>
<clipPath id="clip0_40_9">
<rect width="74" height="74" fill="white"/>
</clipPath>
</defs>
</svg>
